<?xml version="1.0" encoding="UTF-8" standalone="no"?>
<!-- Creator: CorelDRAW 2021 (64-Bit) -->

<svg
   xml:space="preserve"
   width="48"
   height="48"
   version="1.1"
   style="clip-rule:evenodd;fill-rule:evenodd;image-rendering:optimizeQuality;shape-rendering:geometricPrecision;text-rendering:geometricPrecision"
   viewBox="0 0 1270 1270"
   id="svg18"
   sodipodi:docname="Ikona_Email.svg"
   inkscape:version="1.2 (dc2aedaf03, 2022-05-15)"
   xmlns:inkscape="http://www.inkscape.org/namespaces/inkscape"
   xmlns:sodipodi="http://sodipodi.sourceforge.net/DTD/sodipodi-0.dtd"
   xmlns="http://www.w3.org/2000/svg"
   xmlns:svg="http://www.w3.org/2000/svg"><sodipodi:namedview
   id="namedview20"
   pagecolor="#ffffff"
   bordercolor="#666666"
   borderopacity="1.0"
   inkscape:showpageshadow="2"
   inkscape:pageopacity="0.0"
   inkscape:pagecheckerboard="0"
   inkscape:deskcolor="#d1d1d1"
   inkscape:document-units="mm"
   showgrid="false"
   inkscape:zoom="14.638496"
   inkscape:cx="78.696609"
   inkscape:cy="46.862738"
   inkscape:window-width="3840"
   inkscape:window-height="2036"
   inkscape:window-x="-12"
   inkscape:window-y="-12"
   inkscape:window-maximized="1"
   inkscape:current-layer="Vrstva_x0020_1" />
 <defs
   id="defs4">
  <style
   type="text/css"
   id="style2">
   <![CDATA[
    .fil1 {fill:#AAB8BA}
    .fil0 {fill:#FEFEFE}
   ]]>
  </style>
 </defs>
 <g
   id="Vrstva_x0020_1"
   inkscape:label="Vrstva 1"
   inkscape:groupmode="layer">
  <metadata
   id="CorelCorpID_0Corel-Layer" />
  
  <path
   class="fil1"
   d="M 118.55922,4.0992601 C 71.541053,12.972098 44.777428,34.770225 24.024742,66.042905 -3.5691232,107.62457 1.4089973,141.55345 1.4089973,201.00046 c 0.00332,77.39548 -3.9951161,915.59114 1.4645438,950.35774 6.6718109,42.5224 31.5557719,71.119 60.6374279,92.6512 38.476651,28.4768 83.422541,24.4909 135.378981,24.4875 81.71224,0 915.38965,4.5711 954.71985,-2.224 41.9371,-7.2472 74.2733,-35.6975 91.9242,-62.1365 27.4743,-41.1528 23.0873,-77.9706 23.0873,-135.3365 0,-80.18798 4.1612,-910.70421 -1.9693,-948.82849 -7.5087,-46.734492 -33.9037,-75.593654 -60.581,-94.446358 C 1165.1103,-3.4338423 1125.7536,1.5095482 1070.4562,1.5128726 989.14251,1.516197 157.43107,-3.241027 118.55922,4.0992601 Z"
   id="path9"
   style="stroke-width:0.332268" />
  <path
   class="fil0"
   d="m 341.85731,426.09262 c -35.29184,11.83488 -23.59542,72.53852 -23.59542,109.2865 l -0.0863,262.80089 c -0.30221,64.93561 19.94235,57.40583 79.69973,57.32937 63.16136,-0.0765 505.63957,5.24259 527.74388,-3.18146 30.58938,-11.65536 20.58664,-75.7366 20.58664,-109.94805 l 0.0996,-262.86073 c 0.0963,-64.1444 -21.832,-55.79017 -78.81637,-55.72701 -67.74096,0.0731 -499.02753,-6.61889 -525.63175,2.30049 z"
   id="path11"
   style="stroke-width:0.332268" />
  
  <path
   class="fil1"
   d="m 375.41562,485.01106 c -17.51807,16.19317 30.84176,37.22669 48.55577,48.01106 l 198.2813,124.59538 c 21.66595,11.66534 35.67044,-5.72795 69.4579,-27.50945 25.24595,-16.27629 43.86658,-28.46688 65.44618,-42.19668 14.66869,-9.3316 128.35183,-78.53907 133.81481,-85.6666 11.1385,-14.521 4.43016,-26.41572 -15.10706,-18.61002 C 857.3402,491.03155 658.14896,625.11479 644.33044,630.77293 626.58322,638.03676 540.67992,575.48807 511.17983,557.60609 489.76959,544.63094 388.467,472.95344 375.41562,485.01106 Z"
   id="path15"
   style="stroke-width:0.332268" />
 </g>
</svg>
