<?xml version="1.0" encoding="UTF-8" standalone="no"?>
<!-- Creator: CorelDRAW 2021 (64-Bit) -->

<svg
   xml:space="preserve"
   width="48"
   height="48"
   version="1.1"
   style="clip-rule:evenodd;fill-rule:evenodd;image-rendering:optimizeQuality;shape-rendering:geometricPrecision;text-rendering:geometricPrecision"
   viewBox="0 0 1270 1270"
   id="svg267"
   sodipodi:docname="Ikona_Facebook.svg"
   inkscape:version="1.2 (dc2aedaf03, 2022-05-15)"
   xmlns:inkscape="http://www.inkscape.org/namespaces/inkscape"
   xmlns:sodipodi="http://sodipodi.sourceforge.net/DTD/sodipodi-0.dtd"
   xmlns="http://www.w3.org/2000/svg"
   xmlns:svg="http://www.w3.org/2000/svg"><sodipodi:namedview
   id="namedview269"
   pagecolor="#ffffff"
   bordercolor="#666666"
   borderopacity="1.0"
   inkscape:showpageshadow="2"
   inkscape:pageopacity="0.0"
   inkscape:pagecheckerboard="0"
   inkscape:deskcolor="#d1d1d1"
   inkscape:document-units="mm"
   showgrid="false"
   inkscape:zoom="11.313709"
   inkscape:cx="123.6553"
   inkscape:cy="69.384853"
   inkscape:window-width="3840"
   inkscape:window-height="2036"
   inkscape:window-x="-12"
   inkscape:window-y="-12"
   inkscape:window-maximized="1"
   inkscape:current-layer="Vrstva_x0020_1" />
 <defs
   id="defs259">
  <style
   type="text/css"
   id="style257">
   <![CDATA[
    .fil1 {fill:#AAB8BA}
    .fil0 {fill:#FEFEFE}
   ]]>
  </style>
 </defs>
 <g
   id="Vrstva_x0020_1"
   inkscape:label="Vrstva 1"
   inkscape:groupmode="layer">
  <metadata
   id="CorelCorpID_0Corel-Layer" />
  
  <path
   class="fil1"
   d="m 629.50852,1267.1043 0.5882,-475.43039 -177.79832,-0.76105 c -4.26354,-17.54376 -4.29014,-189.04435 0.12625,-205.29226 l 177.60894,-0.51828 c 0.7543,-148.08236 -13.32902,-274.17179 72.60934,-358.45511 90.00575,-88.26391 214.45867,-74.20898 352.81187,-57.69189 l 0.6781,173.05563 c -114.77615,3.20968 -204.34993,-18.78648 -204.6589,129.20948 -0.0666,31.93098 -2.95434,84.53575 1.48867,114.01132 l 193.50653,0.80077 -30.1469,203.05624 -163.12038,1.32579 -1.70796,476.26425 c 45.33999,4.0339 264.83964,4.8446 299.64254,-3.5186 39.2056,-9.4232 72.6491,-35.7521 89.9524,-60.9979 26.8109,-39.1148 28.9374,-66.8093 28.8778,-122.1954 L 1270,172.80638 C 1270.0498,80.192983 1218.4354,14.191077 1138.1531,3.0567974 1097.575,-2.571891 311.01733,1.2957984 230.62193,1.2957984 146.02617,1.2957984 64.461038,-7.1871058 16.51889,89.954996 -7.6631964,138.95803 1.84083,311.88412 1.84083,379.72022 v 604.75942 c 0,106.29936 -11.926545,196.00206 56.512386,247.66666 68.299354,51.5648 169.464034,35.4794 267.840614,35.4794 98.97147,0 205.2503,3.6984 303.31463,-0.5214 z"
   id="path264"
   style="stroke-width:0.332289" />
 </g>
</svg>
