<?xml version="1.0" encoding="UTF-8" standalone="no"?>
<!-- Creator: CorelDRAW 2021 (64-Bit) -->

<svg
   xml:space="preserve"
   width="48"
   height="48"
   version="1.1"
   style="clip-rule:evenodd;fill-rule:evenodd;image-rendering:optimizeQuality;shape-rendering:geometricPrecision;text-rendering:geometricPrecision"
   viewBox="0 0 1270 1270"
   id="svg22"
   sodipodi:docname="Ikona_Instagarm.svg"
   inkscape:version="1.2 (dc2aedaf03, 2022-05-15)"
   xmlns:inkscape="http://www.inkscape.org/namespaces/inkscape"
   xmlns:sodipodi="http://sodipodi.sourceforge.net/DTD/sodipodi-0.dtd"
   xmlns="http://www.w3.org/2000/svg"
   xmlns:svg="http://www.w3.org/2000/svg"><sodipodi:namedview
   id="namedview24"
   pagecolor="#ffffff"
   bordercolor="#666666"
   borderopacity="1.0"
   inkscape:showpageshadow="2"
   inkscape:pageopacity="0.0"
   inkscape:pagecheckerboard="0"
   inkscape:deskcolor="#d1d1d1"
   inkscape:document-units="mm"
   showgrid="false"
   inkscape:zoom="20.70196"
   inkscape:cx="73.664524"
   inkscape:cy="36.445825"
   inkscape:window-width="3840"
   inkscape:window-height="2036"
   inkscape:window-x="-12"
   inkscape:window-y="-12"
   inkscape:window-maximized="1"
   inkscape:current-layer="Vrstva_x0020_1" />
 <defs
   id="defs4">
  <style
   type="text/css"
   id="style2">
   <![CDATA[
    .fil1 {fill:#AAB8BA}
    .fil0 {fill:#FEFEFE}
   ]]>
  </style>
 </defs>
 <g
   id="Vrstva_x0020_1"
   inkscape:label="Vrstva 1"
   inkscape:groupmode="layer">
  <metadata
   id="CorelCorpID_0Corel-Layer" />
  
  <path
   class="fil1"
   d="M 132.8252,3.7869247 C 81.929196,12.54102 56.108196,33.872685 34.393196,61.474848 3.4291956,100.84334 1.3741956,129.48283 1.4611956,188.96612 c 0.119,85.83202 -4.605,907.31058 2.33,950.72858 6.9780004,43.6442 32.8200004,77.4337 58.3390004,96.5677 39.818004,29.8663 66.598004,32.3499 127.450004,32.2701 82.414,-0.1097 910.079,4.5683 949.714,-2.2309 98.987,-16.9795 129.366,-95.1845 129.25,-185.5549 -0.113,-83.74071 4.548,-909.66779 -2.241,-950.76183 -7.284,-44.059732 -32.644,-75.558514 -58.485,-96.078937 -36.647,-29.1016316 -70.184,-32.5859808 -127.088,-32.512836 -82.547,0.1063923 -908.048,-4.4618289 -947.905,2.3938277 z"
   id="path9"
   style="stroke-width:0.332228" />
  <path
   class="fil0"
   d="m 466.2452,204.11706 c -135.647,5.5191 -224.026,62.62851 -253.101,183.57667 -20.373,84.7548 -12.814,322.21253 -8.827,421.36022 5.381,133.92136 65.247,219.01195 186.157,247.26245 87.165,20.3642 311.809,14.1502 416.492,9.5155 135.68,-6.0079 222.938,-67.69881 249.181,-183.69307 21.419,-94.67588 14.205,-308.44137 9.693,-418.40118 -5.72,-139.6865 -68.089,-221.98098 -183.508,-250.74681 -80.711,-20.1148 -320.779,-12.75046 -416.087,-8.87378 z"
   id="path11"
   style="stroke-width:0.332228" />
  <path
   class="fil1"
   d="m 490.6392,282.07604 c -89.349,7.66025 -184.999,4.82423 -206.04,150.18943 -11.845,81.83566 -7.466,261.75841 -2.811,347.57713 5.331,98.3165 16.008,188.40421 151.339,204.91497 96.453,11.76301 248.254,6.56973 349.369,3.4777 118.629,-3.62399 188.916,-36.80842 202.288,-150.74465 11.493,-97.91087 6.726,-248.02049 3.509,-350.08067 -3.811,-120.85173 -36.869,-188.11497 -150.904,-202.6076 -81.043,-10.29679 -264.303,-9.79142 -346.75,-2.72631 z"
   id="path13"
   style="stroke-width:0.332228" />
  <path
   class="fil0"
   d="m 597.7192,416.59255 c -68.852,17.62123 -101.825,33.81614 -140.092,84.38242 -118.878,157.10824 11.042,387.75687 216.896,352.26837 194.978,-33.61666 244.071,-287.06649 94.189,-395.8859 -39.104,-28.38681 -104.962,-57.66465 -170.993,-40.76489 z"
   id="path15"
   style="stroke-width:0.332228" />
  <path
   class="fil1"
   d="m 607.0742,494.06279 c -44.853,9.95766 -68.65,29.16148 -88.399,56.08872 -75.439,102.82487 12.2,253.36671 146.765,225.75125 65.459,-13.43536 128.639,-81.95535 110.629,-171.45459 -13.535,-67.26988 -85.651,-128.88434 -168.995,-110.38538 z"
   id="path17"
   style="stroke-width:0.332228" />
  <path
   class="fil0"
   d="m 847.7802,356.78675 c -69.185,30.26197 -20.391,118.85687 37.649,94.75568 63.223,-26.24899 24.145,-121.78932 -37.649,-94.75568 z"
   id="path19"
   style="stroke-width:0.332228" />
 </g>
</svg>
